<mxfile host="65bd71144e">
    <diagram id="uC_axBRfn9LIrtrF9uhw" name="Page-1">
        <mxGraphModel dx="1431" dy="863" grid="1" gridSize="10" guides="1" tooltips="1" connect="1" arrows="1" fold="1" page="1" pageScale="1" pageWidth="850" pageHeight="1100" math="0" shadow="0">
            <root>
                <mxCell id="0"/>
                <mxCell id="1" parent="0"/>
            </root>
        </mxGraphModel>
    </diagram>
    <diagram id="kvMRzgRaRAdnFXSng7BC" name="Page-2">
        <mxGraphModel dx="1063" dy="863" grid="1" gridSize="10" guides="1" tooltips="1" connect="1" arrows="1" fold="1" page="1" pageScale="1" pageWidth="850" pageHeight="1100" math="0" shadow="0">
            <root>
                <mxCell id="0"/>
                <mxCell id="1" parent="0"/>
                <mxCell id="5y5n-FTKtPdMF0YceZ4--1" value="" style="shape=image;verticalLabelPosition=bottom;labelBackgroundColor=default;verticalAlign=top;aspect=fixed;imageAspect=0;image=data:image/png,iVBORw0KGgoAAAANSUhEUgAAAdoAAAVACAMAAADYiGmrAAADAFBMVEX///8zteXm5uYaGhpEREQAmcxmZmYvfZr09PQtVGKqZsyZM8z/RET/uzOZzABmmQD/iADMAAA4hqOZmZk8Y3ONjY0ALj7AwMD29vYAAABNTU3u7u7MzMwzMzOAl5+zs7OioqIiIiKZ2vIgdYXM8v+Z5f8AZpn7+/yYv86IiIh6enr5+fk/P0CAgH+AzOaTk5NKSkozgZ7/3ZnVs+bMmeb/oqLM5oCzzID/xIDmgIBRUVDe3t7S0dJZWVnM7fnGxsZVVVXH5/SIxfVubm69vLwyWWg1XGutraza2dq+y89jY2MLCws6YG+4uLhExvVeX1/q6urX8fmEhITX1daU0+2br7uq7v+x3vTx/v9GRkY3Nz3j8PkYGBipq6e/5fVmyO3y8vGkxubh2NHS1+Boo7ny7+P97ckGBgbs9fmrwsr//vWtx9QzmcKl1fPIt6WbnJxRXF/39evj+P1mut12lqk0b4eqzNySss6I1fPV3+fP3vHCxMRwh5Dt5MKh3/bI4eVuUlPm39vE19jc6fPp59+XnLKjlpmWmItVRUPk6/A3vu/e5ui3u6tOvuefn6KFgG5PSmvs2re0o6C/ppJgXVHg3+nPwa/l2KmJnqiMZU5srMnC7f6GpcKElb1OYpdbxevJyNbp6tJoi7Z4y+672Oitvb+EjJiKveLBzr/Rwr9bcH+zmHdysOO/zOC+usuKjqi0nYxXUUdSmbPGr542dpZETVhDqtDU5srgyaDStpGri41weoShkIGXdmums7ylqLJEbq4ziKhug6WmopiZg3SltsrX0ceuqrpcdKZOVnZn1/ibrqvXvaCDp7R7e452bn6GZGJ4amBPuN3nzKlsTnTU+v7gzL/sxZPv/Pai1+Zie5LgtHrIqHUWDw4ZpthmksZIUYdVNzA7kbKTjnzJlmvZzrS/qLEDc6iVfodGd4ZmaHb7+t33zse2h2bHzKdBhJu+uJpxZ42jeVMfH0Lo0/I7obr0t3l2RUIAp+IKT6Bki5UKNmCIPxE0sL9vGUUAAHCLEDFpAAA7AUlEQVR42uzWO0scURjG8Zd8kFSC/ZRPMnCIhZAusKAQCCwhU2xIkcEmEOEI2ruuzXgZcEEFL7UsaGO3YKGIjuDCCK4gDDZ+At9z3MVLY33k+RVzOJfuP8MZISIiIiIiInpXkvHxXXnt/PVatTCXDo7/HhUKQg/IJ+WlRoZSXkiMWRanQJ4KhaDKADPxdtrrjTNxIvciUAgiqCVtd/CxZePDVOTIxv8tyubYVMvUGq1FmKlUktuNbzJ9HG/tM20o+si3kWs7C6eUAl7px80+lNZM7Pzy4xGmDURlsRMBf1zalb/3yC8y5P86xqfdWr8xWJ3sADWXtgdTb1qmDUQB1KctSnHt3Ce8ZvHF37UFdEEfI37mtvtoi1wybSDu4F2lw7TaufaU9lQfz9KWIgXThiGxMHFsgNowbZWhrcuDtBFMXZoWm49pu2eNe6YNQwEz4S/c9jBt2ge+GgzSakmMGU3qtiPALPI3KhB32tIP3T2rt2pPu1Vas3uCpQLdEZEkg05/iC/fAcwJ0wZs9tPzeDOff47KwK8P34WIiIiIiIiIiIiIiIge2Llj1YZhIIzjH+5yuwlXqPZA/AbRGY/xKPCWKe/Rl++SlEBlRzpqR1Huv1oGwQ8hkECWVUDeCf9NnIf10nUcCABIcBV2JMA+XAJ32LhReDlpYKXGuEa/tCDgcwwAY9vEP6SdBFZaPiDa3gMIHls2ThMeNbkAKylHmI8ctmyYUvwHWEmJ8Hwi2DJOHGUlxbz8UZeeVnghMdoXpuXFAUZrtNab0u5vVf2aQ1W0o+PchhG1VhOteMFshGjBVXsGUhMtyxdmmzpEa6rdu2uiFcF8HWb6RqWpaW93RnmJ86vQxqf73kcgStrbnVE2LQXu1qQVzkmMViGx8M+atIyc2Ghj+aCkDd5oIxVE60hJS85oY5VDK1DSQow2Vjm0rKZlo41ltEZrtEa7OW0w2lg10E5F0w47dQPu6khd93Tai7uoaKlo2t2Huh3uokYdPZ1WIBpakfpoz/35X2iFpQhaBmtomYun7XNp+7aP0XIuLbdstGvSth+5HQ/HCG3b5DacBqNdkfYQsdOs2lPT2Kr9Ye/ucRyEgTCAWlR7A1YKfQqOEEu0WyLlAtyDy++PUmzh3cgQRRPzXkNB+cky2J5xRbSjURv3M2pftNfRXBv252dftG++kOMuWeQh+Fzrv3ZrtOkSOlqrUc0uNLZjX7QNLjS2w6aeaB8V7Xk+i7YkULR5W7Tzx+hsVEmgaLeeaLwsTjSWBIrWOeTgVA+I9kVqfkTbbKWecq7j1df+qdkWY01FO5xSrfeTUVsSLNo5108Qk14WRcGiTV3ua2UdaIqiRYtoD0G0zYoWrc6qTfZDXtNvh+vz9K3VLuZrl+67DonauweW3H/JS7p5/t0D05Lu6SZ3D9Q3Oxtuj8K7J8n92v9v7ZtdYdirvH9THLU/ezS8NLdzAQAAAAAAAAAAAAAAAAAAAMAne3fy6jQQwHE8DCXGs4oSjfXmlmLPTQcDdQlFSDEIGhG0pQcRNF6UuuBWtaViXVr1oOAT9z1qwa0I7qKiRXE9iLggFUX/Ayf1qdGKxtHi9vu84dG8NgPl22naHF4A4HcYIMqcxAGCj7a6F6fVmuBnRUQ+Eeuz52XKnMx/5f/ZiT9B8Fktclst+EV68YoIPqbCzRQ4jfwV12dlhv+a67PKYruzz8Tpr0Sf62yrnSz49GqfJaddE7/QXCW26yX4ie3NzowNlFYUfGSlxaamq3zBjrJf6iS3e8Mbntpj5T1Z4MB/WWXb9l9Vmf+yyvE4IdL30m6b+PT+qwdPxFONU5FTZXHnzbk8abddayaaIxpbtPVe05Vi84k413rGkXZuPte1YtCKKb1mTem1el2v1ed6zbrwLGBa1QsYUkJmwcuoeqNGXcXWzajb2rQdWogpqqLS5C9ISznSxmLtaftypB05MkjaUVpmnZbbM/j57Fy+a4LVdYErbUo7vN3qKr0Iv962cJE1c1EmvXDLWp606YPZAy9zpGseuVMke1LFPanJt4KuWtMsOLRiqrJrVxzqOpRWQhWlVqjJFZMWqFnQbRpjj3AeOz+fdtgvWrVjO7dqTzwStj68vGTtto2bX00/yJv2hPi2S1yaXzHq9eW1F7R4dqu1cMtCnrRLRq6b8fyekd1K7iwimWyuenxu4FVbUGyqOGYoxtLWTD2pf0qrmyytS1Wqm3rFKTgdWLWcaUnfTqV9cFrccaiU27N221qWdnu6OLPOkZbN0txuLNxiHF60bOGizNpFmWtzL67nScs6zji6SEuXql2keIeU2MINvGpDiuKwmnSSY7JVy4Zb01luPabKlMZMx63R0CR2h0pj9oe0f+fHKE0L8DGqZW9Z7BZpJkSOtC3jRaZZFptDxWZEZDjSdmPH2rHdx1o2AqXtpr6vzG544yPvWKvYvkd8TPtvSIrfhy8/fyX+UxbJ+B92ysLAKQsAAAAAAAAAAAAAAAAAAAAAAAAAAAAAAAAAAAAAAAAAAAAAAAAAAAAAAAAAAAAAAAAAAAAAAAAAAPgrzJcVTtH5gs/wFOGUGi74pOaHOfVNCX79CC+pE89rcD+JU7/BAp+owi36WRLC7bMk8wm3voIfCfMigk9K4pYSfFhZ7rYCH6WNTU3Xdt/fjHrDU1O+QvAhX7H2EDm8nfhc87baCT7h9lluJjaTL+QvkXbh76WdMujH0xKpJWtZOekLU4l3R6r6fqPqbXuWTJbeI4KP1IZNWcq27Sx9xS9Lq7q2U3BtVbFV26GFmKIqKk3ypN34eNer++mlJJ1LZ9I5cjG3fhpH2lub89X8yNK1xFyv6VZvrI+c5Uh72GxcCY8NTwmHB4XHnmmNw2eDpvUapFiOklciJU3tL+WNnDTbsEh1an+2OdUySprUX8oa8WLAtKWpVqlt546mrblKTa6YtEDNgm7TmEMrzmOHJ+2tqzfKO26UB9pX1zT2vn0TecuVdqOYGFIfv/f20rGHNl6uR67XywsuH+dKe+r0mvOjG+Lem8kFi5MDzeQCsxI4bdwqpg3L6k+q2UzaKKUNI5PNSEuWLSEZ1oUtQGO2UU0bmXQxHTit9JWdO5rWdlUzWtFNltalKtVNveIU+NLOvaus3L+xefbWthP3Dx/mS8tmIV03SP327tXL115en+izZuX4t8cv86RtDj1zflMhcaWcXHDTLF9piNv2BU5bkmZbkmGlNJZ2iaXFtQ9p82yzZFg5I2t4f2V1gr4h57JW284dTqvrIVumNGY6bo2GJrFVq9IYT9qFB8i63YnGpsu3zp6Yc7K+YPGERRxp2Sz5+rAHGyLTbzaO1ctn6+M3r995gSct63j++s3E3kZjb7KyINkYH3zVzmZLMc1qGkUrzlYtG7m8UWRvyFqKWJZmpXNLjGKq9QhtarC0szWjOLtt5w6l9fOOtezHoyoMT9qWJRnSzchXCUfaljhh8hmSj3u/GY603Qb5jrVjw4HSdusveaayG974yDtcSlN9jwiQ9rs7+/0jX376Em7z8eXnMyNl7rIjccrijz5lAQAAAAAAAAAAAAAAAAAAAAAAAAAAAAAAAAAAAAAAAAAA8I860oPXEaET4oN4xQX4TI+evHp84zXC/yIZFOI16MvXyP/+IvlVadlE/DN1Ii2biH+mfwLSIi3S/m2QFmmR9m/zrSKjPbxp/dOMGTPGNxFv2qgci8Xk6M+mnSTHdF2PyZP+17Sjx/T+YMzon0g7etzHecaN/om0Mk2K7yWpzJ920jv27phFihiKA/isxai1I8ooKIdwiqCpB0eikCAhx6Aoe4PoCjaH3DYLglyhhZWFpY0WFucnEL+AH8Iv4Cdx54zu6stOXt5F3Mvkb6Fe8Zrfy2Y288JVTf4rTdUOkNaAABRfWln8GUmkrVS+HFURaflfdfjgaA3sMi6FVhQwgkDLmvzvNIxAWypQR5WDohWFLcJFi64DafEi0ARPy3NbqgHRAhFggqOVhT3Sk7bK7ak8aevcnnowtEAW2DpoUXXwtGW+KqUXLV9ZpxoKbbE6OFooC23xtEytJFHMg7bMV6ccBq3uIdEetEVfPGibHpLGg1b11FGDoBW9JAJNK3vrSDRtlfelQtPy3jp8CLS6l0SjaYv+oGlVL4nC0raOOm38tMJBIhy06DpI2jLvT4mkrRx1qvhppYNEImm1o45G0tYOkhpJ2zjqNPHTFi4SJG3hCpJWOUgUjrbNXWkHT1vgaIWzjkDRMicJQ9GWzjplMNq9+/v3p4/vj18+mx4KZvxmOp6Ox7cvvXtBpiWQ/HNaPAmKtnLWqYLQTkaT7PXNOcjDvfGL7DWZdXN/O9t5vDe+tTd+PDv7cp1oZQBaJAmKljvr8CC0o/kfkxOzjJ79u3+s1KNFK6Ok7VZtkOxvHl3aOFfteiXttWH32sVj1Nnp7BB77eIx6vU4PSH//yfk+V67eIw6e2v7EHvt4jFq5276Xvv/v9cu7bUnZuu116bTqGj32oNPUi2t0X5nyD2FPM+QG25N43eG3F+oCka7vNd+CHJk8XAa7s2PfcaR8ObnpDXeb36YdSjZ/82Pam2FWhXuzc9k9Hax127S99rNjzuLvfbcpTC0wgCCaML7WmkrJL3f1zY2kYbwvra2FeIB39eONsIcWXwcTf7RlIW2gJCmLGyrnzBl0cDlVpOmLBiULc3iX6sji+3Jzr+ajdICgJNmozSU1ZTZKPWXSdvQZqPgRzJTw5mNMt9JJfAgTDRCW0GdaOTLKKyhTTTC9V8q8AwV7Mji3O1vZJXlI4tPG6HnkOUCljiHDNe/pM8hq5r94miIc8hgMr0FO3DII4vsapgji2w7/O0BraWUWh/y9oAUf14Qk+TbA6rmvK4V9faA6ZG6NP9lXC2dHq/VkcX8oPFo3PkxLbI2d35U3fWIGuKdn3RTL4si6X7toGiFMH93Mf8i0poy0hSi0bKqXb4V3wGxdCueQCvBSgU/wdJCTyF8aVm3XBVfsmRcmSdmAILrkeVFzAZDu/j81FKKLnLxEwFAiD2Cp2V1bqJqXpVlxefSJjUDILQeGQStJEw0UXoES8sJYy+UHomfVhNexdN6BEXbNrkjTQtAaD0SO23hjgYgxB5B0LYqd0a1AITYI1HT6sLL9vgMFsJX0i5aI4u3vXjVlCD2SMS0xgNtsruxihZdx+SrVQSsNMfsy9YxQAtkcbaPsijyW0QWyEjjMdoI1CNfd4EI2B3d++SV84CW2CNXtrIo8ktEFOiIn7KAltwjNlqWo8N+ygJaco9ERivxtPLAA9CSe8RKW+Np6wMPQEvukdhoC490HoCW3CNW2jb3SDv3ALTkHomNVhYekXMPQEvtETst96Hlcw9AS+2R6Gi1j8jcA9CSe8RO2/iIXD8PaMk9Eh8tQRbQUnoE0vqvtVPnAS25R+KjFQRZOy1B1kJbEmQBLaFHhk1rPCAtvUcgbeXjAWjJPRIX7efjXZ4TZKm0sNIu+M1LVzw8AC25RyKj/ZmnD7B53+XaRpebdFojC2lN7lxAZutMlxvHujyh0hrZOGmDLf8vz5H58r3L7kE+Z6EClv/1e8icftTlwlaXSH7xWkpKSkpKSkpKSkpKSkpKSkpKSsoRzKvL1LzKUtY6P9g3m9AboiiAX3fBs323ZjYashqUuvuX2dCYIsVOKcVGFKEkr0g+FoQsfJQFonwUC/kOG0RKwoa17C3t3DMzxsd5M+90zOW9cX7zf/1v91/nP73fOXfuezMnnsUl/j1HJEkmi7bUQiB+JEEpUSuI2v8eUdtZRG1naTRirW1BrS0QtST8q7W2/x2wwlbrwlRYUfs3iccKASxPLY4jagn4VNvHcNTaPkbUeoRhBLAEtaQ4otYbHCOAJaglxRG1vmAZASxBLSmOqCXgQW2/HopabBZjRS0fvtp+EwS1pDii1g/MYgMsQS0pjqj1ArfYAIJaUhxR6wVusQGWoJYUR9RipkNtX9T+e9A62gxPLUbUYqZCrR0bx4paBl7VWlE7Nfyi1oraDiFqO4uo7SwTd63NIjaZ+olFPTaLVCeYuB1yFLCJ1E/0NJue6gQT97n2Z7WjNWeBckfkBlDkQVAOatSG5QuTauOO0A2MManW1aCn2llGMtXOMrKoI99GlTr3LwuArxfeX3p+98quA4d236/crohWrIhU4PzCy6EypY6MVrtujdZO4OkTd89ee//6+u1X+y5WbgfhYBAa+DO8HMa5nQdq0QlF7hhLBBmX5VmWFamGTih0x1hCyLg0z7I0T7XW1NqRML5DtiMZp7Z6E8Hbjt7nC4+v3M3OXz15tJqNVOR+YBAFvQxmYAKphTdxZaJzb5/WRi8Pv37/6PjwzE1dYkITuh8YhHprCjMwMUrt5WuB2nUjPJU9uxfUo1YMVyh3HkfOBOqIc4vVzp2jzfXVC4bHD7/Q9ZhBMjBG63lLtZln0hbUAtViiWDc+akPNGtM1X58FRTsvfFu59PNF76s27ZqZvCdYTYcZnnVZmpDoTZTWO2cuTpZqQu1b46/uLXp0Ykrx9YMzuvvJGmSpHnVpmZdoTY1WG0UXbvs/kd88qFZeHtb0MDw8jBfQXr5Gf2uNgzdGWnz4GDyZM/yNbqBZG6SryBb8zNqSa2tU8K5X2vrnl+1TWqhRqqqxdCrVs/ds06XakdAr9oI/gdlQVZDBQvy+tku5yKkVoep1qQF2SQmBLPLdWrCVtQCNUos6ykLFAbnDlY79m3E19q8hLFaneomtfham5dwO9uoI+pIK9uo1KQtbKManHCfjWpYjvk7ZGcVjmpjDKP6HTIQ1hSHhqPaGBejtKMffnInuHD5TzTiyTKOfK4l4Ok55EqAtX/yHHKdWfk2ioC/7gELcLsHcP1b6R6gMUU9PxaQnh860qkn/KP+WhxH+ms9Qym28hdQjKQrfvqo2f1YPMNakNGEqPUItcHOlhDaOcg5Ik2YBPyotYwb6OQckU4937BvswJUtVa6B/45MTLbDO9WPEbUeidGPqhO4u1/lCOi1jcx8kF1smN+GzkC7FKCB2La1RFfJ7fMmN9SjmzZoQTAl9o+mdIsUsvOEVHrhRgJISgBH0gtO0dErR/iSggd8IHUsnNE1HoiroTQseADqWXmiKj1RVwJoQM+kFpmjojaiglQCz6QWmaOiFoafLWWYZahFkUStT/492rBB1LLzBFR65O9MbCRYZattookav8Cu2MqO4DF84ElPLWVWVE7JRTlf24jlTvA2x3AByUIgiAIgiB8Y+/MQpsIwgA8ZIPkfYhx1sQkvtSuBvNsEyOkkKSxeBQflASiIlGEeiNSxbMqGFTiWfRBxaMqHlDEu4K3eOP5IqioKL54PIjggzPbSdLabZ1NU93d/l9xWCazov3y7//PbLIDAAAAAAAAAAAAAMAAYmIkjZ2jnTgWssiTbwCGuzr4ijBGqa2/zjcUAeYnrvgJhavlZMd4qxBgatzjCIerLeL3gVwTU0PFaqjleJoQYE6qnEmipbbEICipTMnEqaQz0tS6qDM6aKrUudPfgADTEerkMBucN7GkPD2hFM3JegSYDFeyU8GUQV1x4FTRehoBpsKVJZwU1qqEM0pxALg1FaFizAYcSJuaYCFuXQgwDRMLefZVbS8FdLQwqAYBJqGqUBv746g3RvNh02Dxwiw4C9PYoah3YjzhBhBgCmqSPGYzom+CLFySzcE4nkLj4mNlBJgAN+mgFgng8BOVCAKMDw/EgK43whgEGJ44X6lwIDHGEJU40gPsq/M/UIgKRoKEiIqC9AC7Yf0POpKnv0rnBdzfZ7Wdtik8Yms7+Hzl/unP1zauObqy6daHtW1pAbXddnk+Li9uOday9dunjYsfLX80ecPuH4ubB65anjt9us9w91Et4g3j7LQDK1bu33sivuDcnhdzDu4IzV6RE1WLecN4uun8nZatp7fUfb/96+3Hlu3HPEtODVy11YSRzSBxUoThLF/tMC61qHZ6zfkDl5Q7B9p2PwwE9n70Pdz9QESti0stqv024UDbjZOh84vzrS7X6UO+SKx2AKsNEkYQ6aCub1NbKhbRH662g/nl5VpMf7jaDhpsAlhm2/2/8Iow5iEdxAjjVV8uyInSLs/iCGwFLITgtvtz5h5dl5ixptZ78N6bwVoIbrv/ccvFrVvuPD48uuXqyn9Z1k0kKhORDhxZwhhagQp5WIUqZFef1NJtwlH3t1n7x+ix5Y+PXbz48LCgWpfLhru/zS4cSrhrE+6mpqb6Zf9SbYQwpHKK6ohVJj98b3Y0WC/ae7Njg0zG0oQxFelCJoy0ddSqDOu7WhWXQdRiwqhDuhhEGNgqq1EWLaOchBFFuojy2Q/QHwwvPW6UHmvBX9PsLTGZMJRy1iYnI4sAUdstaq1yQe4xyS496dqZuHFO+8Xx4zVyrTbHJ1cv37Lhtk2TUMh4uXaexcqo7ozIX8TKmR6WU5YvF1Z7oTlypSneYNMkEjFehRyrrNqf+58evHm2dem69cvOa8TIsPGCandtPdty7OmD42furjqgESOukLhaTp/Vcv6xWnf589pQZdUucnzY3956NrHvaD6nFa/DBNW+mzbszoYHTy9vWb5bY/3YhV3lqi3/gsz5xxdkRxmrUZksYTgqq3blySeLr8/d/zU9f8IgjRhJLBdU+2jL7bY5l7e2bm4I7dOIkVhkwKwh+/UvP6TLvmErHiTiUSsOj9oBc+enjjAmIB2EeenVn2rFo1YcHrUDRq2PMJIZJEzVq45Ah6g1OBM7EudoJEwtYWSH9qta8QpZHF4hDxi1/BOKKfGwHUUYY+Bjb4bHS1QUneNj8GFVw1Pl1/c1Hg9h+OHLeibAR1SCYrLmEb7KCBgfGrbi9wgi2Y6gHSCXNLPTRIholWyTiAo8h8Yk1BHB0miIh6iMQ4A5YN+sFLkFa+Nm/fCgVdPQkCQ8HB295Vl+Nc7Cl2tNRH2Wu/W7e66NC2N8CDARaVJgTAhp4WUXY/i4mxlJZ0mBce4q1JWq2lEEzJoWV5IUSdXFMqhAJh1+RQpk4WpsQmqmkU5k/fIg9tBc2Z8lJSSooEzJSCX7l0ddj4NZj1mJy72p9cMalJmJyD2p9c+DdWOT06C9GUwM7uJZAbdT7rqFUxpyrIXgG6/Ng43XAAAAAAAAAAAAAAAAAAAAAAAAzE/ESYHPQlkRp0SBj6ZaEVBrWUCtZQG1lgXUWhZQa1lArWVxhjHGoxFgPZwKxgpGgPVwYkmCqLUkatRCrrUi/VVGuQJl40KAkdUGknbZPjXJWjtr5VGvkkHejgomCy0dk+LdxfYiAgytNojx5NHBIN4QZS3GytRiq6j9yuEgG4OjmB6rL0ZpS4+rEWBotXIi1IjlO00NkfWyPOfmNUzbhp20nRJvo+1cdyNtD/lyVG3zTSyz4WzIzEYMmd/oaptOMpErZz7HRbUzmT1cj2nbvB+zHjqGqj1LD1tv7WQdR6+BWsOrbVfD0OvN0bY9wtrYlXrabvZupq2v1kfbK+48VTuvXh2SZ0PSPlBrdLVBTAkKtNE/OkCt0dWyqtieLLWsHtZsU392WGbzTb2YRS0pm0CXf1912XT5X2WGlk0GmZP+VNstZEUC9w+11Xa7Pde+prZxyrZE/N6cnauu2UWpRp0YSv/carx0d0rjnAuBvaebX55Eopj1ER/9qbasdKuh9sZ733VlyoVW7yVFkTeUr7btlGvmjp1r1ntP2GwjQ6C2D2rl5hnr2YRmRp61DerMZ0pDG53UhtrYpNar9sxto2rbQ9vojPcLxnI3tWVTLe5HXG3EWTYR9DdMpHaujclrn8naQ/U7VbVH6QpGYp86h3WzdvMapnbu6jxV26ihtny6qu0D3X5f+hH6LZtJrfdKDFNjkTwT7GYtvhLbTKezfA7LXm2OXKNq0+05esi6/5Jrnx5qqUiunfVhLBKkfLVhzFH4b7ki4R8xgNr+yLWvW39UJNd+bl7YF7X2aFjqikceFFACg2RPqUspmsX8t1yR8HcKqw0rYYNXyEbKtR1GqgvOiiJVqx1+pQK4eNCT2moe0l2xR5WoXeqMwmNfn1olLIVHIxUjzmsNmmsLURvoplHrCId7itowe+UPt9Qrs9u5C/O/RZ9azE7qB7XZlERJZYlw1BbO6D3XtlYo1+YnVSDX+ieLqZW01TLCPBi1Q5Sj8B59atlZ/RG1KY9Kigjn2sIZvebaO4daKpJrF+TLL6NKNZLi7+qjqxOl1GWpMkryeDbXeDwSnd0uu4dl+YY6l8U3Qo108lOv3puNb6Pt3J05qnbNyRUyPaMGobjUe67dXqFc60CiwOSnm9rQkEyIqZ1ycz2bAq1TJz9zPuTo8eq8qraRKZ/JbtkmNjG1cYQxksyQawe4Wk88rkZtu5vNX723cuq81p3nN2sLd2hpfxTHanNq1GIcl3pfQ777ozJryB8WwmqUsXLt69bK5NrP65/BGvL/r5CNNK81EXC/tgTcr9UZtewglaXRqQ2PVzqkFLWAodUWc23KE/d6UkGsTSnLpgpngFqDq5XuX3Dd2kYrZMljs3kkGfeMLDGlEp0ueTzYI4Fao6v99DH3NcfUYpsN/1VtkKqN0/PcoNb4auc/uHb4OlM7rsoR/KvaLTxqPaDW8Go75Vo3hlwrglnUQoWsG5Oohe/X/nfgCTSWBdRalt/s3T+LE0EYx/FxZw3WPgyCbIixkR0IG9uEOYVdsLE4VBAUOQsLCwtBC0Gw803YHr4DS/FF+BYsLK3sdXaz2ZNk9SFm9fz5+3BgQBhm9svcbu7fOBuYFpPLRTz/Ag0iZ0NgWki818JiWlhMC4tpYTEtLKaFxbSwmBYWT+ciIiIiIiIiIiIiIiJCwe/8wOL3a2ExLSymhcW0sJgWFtPCYlpYLogIfwkTkfMiXgzhcWItdy2ketfyXouIj1GwmBYW08JiWlhMC4tpYTEtLKaFxbSwmBYW08IaKu01FxVrTu+a4uRJzdBxnCHWpVe0tq3rnz2auB43lTU3tVpOcV7s1Mlaqhhnj+tS2JijmyrWpeVOQdqpk87C9guy4rVpF9Jx055xlNutaOh2ibNqC8nMSrJQrEtzfU5L2rlItcykUdrG+OJo5meji2O75Ux16UublsGe5OXGy9uHyeHtlzdE5j3j6LbbPanldhvFfHrX5ZN1WVMq0mqvjz5t8GGgtKU8bNf2oL109ayb+duWrF/0pc2l4dsF53XVpq+UinGMW4/j7Q+8VMtkWcnUdny7RxTz6V1XbmTFmLwvbYi3kzTYSH19dJwPNhTGDJHWd7v2UIpumr2vJPxql8xsozDSMuIV46wGCvF/fmxbfO8a645tR9pRFPPpXU3Rpc2K3l1blvEj0l8f/Q/QWDHRALu2demh5Jqp/+oxanqr2xFd2lIxTrdNNnZtYqJkY9d6azXz2VzN5q6VvH+c1Ke2pr8+Oi6uYqBdO5coi9ftUnv9vbT8lnvJzy5lEBE/7Xq0Epn3jKN8jJKG63NNMZ9t6+rmmIjiXqu5Pv/eE3JntyfkvnF0llm01K5LbSGdBdibH76vhXxfy69GwX41iv46poXFtLCYFhbTwmJaWEwLi2lhMS0spoXFtLCYFhbTwmJaWC4EG5gWkbPBc9dC4idkWEwLi2lhMS0spoXFtLCYFhbTwuLpXERERERERERERERERGgSQ6AyQ6CYFhbTwmJaWEwLi2lhMS0spoXFtLCYFhbTwmJaWEwLi2lhMS0spoXFtLCYFhbTwmJaWEwLi2lhxbSn8SRM2tHDpHbYpj1959fSjpKs9vKcIu2Ap04HWfF/Ku0Vs2/3D+6b3/H44PEQaS9MXjwbIO1cTihtY3xxNPOz0cWx3XIWuvyZtEk1qRKzT1cuHx0dXb5idvbq+MXxq72u8f2n5zFt+ezjAGlLEckqEakykdzW6qpNX9uS9Ys/k/bcZPJhMjln9ujuUXTX7Org+PKdy8cH+0xbvH4b044eDZC22Y3LZfwQKbqMva8kbKT9ekbj7OfazfSkS+aES2lnfv3pmafX56nCxjhvzvR68uTLb41z/uo73XzUn5CH3LVRlVTxn1yT1nLX/rv3Wi8tv+Vea//re+1dg/eE/I29e3mZKQzgOP5kTjp7izmNUyObg0n+gBkmzSlGTbm9ycIlt1xyixBKuSsllybKwgLRRCSF3BaaSC5hJRspkZJsbM3kcmbGmXHOM52eZ575ft5szGzevu/vnWee9603wAmZ97XgNgrcIRuLtMYirbFIayzSGou0xiKtsUhrLNIai7TGIq2xSGss0hqLtMYirbFIayzSGou0xiKtsUhrLNIai7TGIq2xSGss/joXAAAAAAAAAGAAebkOXoh/nyQ0MsptGI5r+lifZc62ndYPL9KzckIj7piG4fjhmhszbSAoG/q0AGnVcKVXa3uiG6dttlp9QyZtuFzUMbJaDUiv1un9RFarnOxqewfzWK160qsVPTmckJWLlzbyFHOsVjnZ1XqiJ4/VKie7WvEfrFY5ydU64j9YrXKSq/1/WlYb34Cs9u9oSRsZqyUtr7Wk5YRspKTe19qsNj49VsttlPaSukNmtcpJrDbYopcL4TUfsDkhKyez2uDV1gkStp2dczarVU5qtcFbW/sfosHjtyw04IoY8pVWfjqd9isd/HRDpU1eaIS04fxJbSY3bTtZftTxX5Pa+UIjpO2etrPtgpX7d24+Z89eeSV3e3Jb2ezYLGnj0CltM275ytp9a5cvO37+yNjX7ZtdKsaSVp0dW+TSBm2fTkyXi5Xs0fuVebWgbFPamTk3JG1hnLRCEmmtlDRLtChlpJVEApa8kkg7OfjXMLlV8IRJUzwhsiFpx20vbth7eU31sNVqwrJK/eAx6/GeW5b1pHzDCnvQGpdE2tSeT7XUL5/fp+IRLTIjxe+Z37Z+zcQiGrRIG+h1etro+/7GsLRfrXXVNfn6GavVw3cT8n7xnbXiUTlfvHHhR9iDCaW9tPfy0ZEb5cLHmdf6S+tfubrsQX1Pdbl7eeDS5n0Z+Y60ayrVY6Xdd62Oem8PjhRr1orv2wrvTt8LfTChtB8e75px983zbHp5ra+0kzMXRuoP5p2rz6yWb6tPG/Jam7RxVsnqYqoVCHkwobQNC1MB6bRNs26emnV90/VMRn1a4Yrk6X2MSgX6TBsY0rT94IRMWt7XktZgw/FZknYIkDbctPG/TRODirThFsz/bcH06BZo9XVA2nDTbQnzxwuNkDZqWqfLh50nrQS1aT/OaQ3blWvbhRlNo0grQUnaO4cWlZ69LL1Y/OXl+h6rbaa17RmjN7LayJSnzdZ2Xzxw4tt6+/Z6u/dq7UbbGaSVoCbt5Q0XDu4tu/Vp9u2eq21OtoG0MWh1jPrva22BtJFplbbbaDkhayCh1Tq8r1XOFTEsdyVsI21UA7FabqPU6zMtr7X6kr+N+vLobLfrKIfbKA3I30atuvRiTrfV6nsbNUR/VkL+NmrVi/N2N06Ct1FBpJiGJ2q/t1HHx4ys7r7a5G+j3DExDc+34iRPyE5wG0XayLRKG+E2irSRaZW2B9KqFutcMWf6Hxr8bhTHKAAAAAAAAAAAAAAAAAAAAAAAAAAA8JO9ewuRKQ7gOH7+zQPPtq0pDCYzEpJnokFZ8sAsjZKR5WHtMbbV6aw0yK6laNcll+OSFZotGVOayCXksrYYlxcaPDBbxkQmCUXK/8TEaD2cyzDx/Zw9u6fz8Hv57pzO2wAAAAAAAPxruoVt3cpPOoVtnW7vOP+2aPeN89o2TrFHbGsX2+bHhBCBpBBre4QFZTs9px8Hv8u3JoIWlO8YWiItbxp9cuNMIt8cLBliWNnx1IYfDPd43tXOOeDxnJSnBcrPXp7TlW8a1ij2efc1R0utHnZ4LbGbNtAYiYZCkdihULQ9GllmP+1NfXZSvaxvVCerNyfaT+vLG1qXljIyqQ4jlRik+TRD68ukDMlS2h2f++M34jfCvpc1Y8MO0o68ZNxafXlL7azwbEdpV1+5sCTxJnVpYX/z7T+UdkF3NHI8Fo1NXbeh3R+y/6k9lteTyZvJKSeSy1vb7tpPqxl91zoMQybt0IxEXjMZmsyspSyljYf3nNw6sT8+YcLEGQkHaY/u6hoxe3PvrJEv1UVO0tZ5X6xOzKzd6qtdeL31z6SVOuVZ+ms7rXwOH5FnelK6GLTmlx0pHTQNCn67TpcuLaWV3o3ymIZ7LFJ+MVhxzmua17J4XmNLo7z6I2nLOElrW0V2PA4oFeB1gDdk3pABAAAAAAAAAAAAAAAAAAAAAAAAAAAAAAAAAAAAAAAAAAAAAAAAAAAAAAAAAMBvPOq5MLppr9LU0tiyuBp23P7W6WreqbAnKz5m7u/oe/L5+dzxh6pgZyAid1V8ObJKCFE4K87mhBVlO5kVgRL/4bUBC8p3VDUr721Qs7FAQI9llwVK5KWFHWVK/fZFitI0ZfM6Rdm0zvW0p3bvf9e/8+n0D9M/nKqCnYGIwrNisVgYkisUikeKQ+ynNQ5q0kHtonZNyzhIuyyrr5SHulIeaiyrm7LyjqpbS7v81dHetobl9b1t06bUVyDthTfPzr19euqDPKpgZyBi1fti7n2ukCtcLRZyRftpe/yybMZ3LP7p2mHNyadWj+mqTGv+Whnz65JqdtZVa2kb6udtOjqsraGubtjk3nb3095pPX/vxOtDryPrQ8rAhs5yZ2d+t820DpTtyOdwwDzNw5pfd8ptkIf8sbpjahqjmMYpf0VdV43ihogQfz2tXe7tVJNpXTWupF27TQjekJUqMqK5xpW0S4UQ1fU/+78bKcu6kbZTkLZShtXYN0v5wS/+kccRAAAAAAAAAAAAAAAAAAAAAAAAAAAAAAAAAABf2bu3kKbiAI7j2zmyfO4gwzq4onspe9etMRVa0YKsFihFK4pu614yLa2ljUq3rnanLHFTyS4Ss8sS1LC8ETYkH4zA6KEHsaKHIqoTJK32P3b87yy3+fvABEH+L9/z/5//zhH+AAAAAAAAAAAAAAAAAAAAAEEMSdQMiiDzEqnNU0AkJLHUkhRBEhlqiQoQRCStniXYd8ic0bBqk+mr9LRqhsC/w6nfw7UuqkJaWvRpsxJYgtlr66+dLPN5v0lOq+EZglbVgPt1dSCnWP60q3uUlHpWK4Lk2TIp2fIUQYzlSkrlRvnHEdImZLEk++z8tkCZr0nyrOU1DIn/TFaztzrgjMCs7ZlGrUcRxDadmi3k7EfKJvKPI6SdyxJ9vDPKe+0ChqhkXcTutUr6tEpFkEz6tJkROSs5DH8uyJxM2yiOIUPaMUvL6mXaIauRNtrSxuqXH3La3RUdsqQd8lhlSdte0EeRljjOuE+7bOdl+9rrh48eX58TVtrz77ckXXHk5FQ3W8JKe3jW8qWHb+zKy9voUYqSa5w4eRolkrbGW7TWyB941dnTSe5aLS1tfv6jywNdV7yeQQ+5q0PirF054+ilgqPH7O12JdEM4SPHOLXxcza7SNpeR1FF35MDW4fKG4l/wHES05Y+8rQ8vuLLHCKn5Xlpac8aLQVFKycfq2o/qySxWIQfMoyjUsV72rvbZ++pqpnYMUH7iSOWlZjWYWuq2p5fbC1e6bARy0pMe9ValLm6oLxP6VliJZYlpKUZR6VSxfuC/A8cKS0FnpCWhoWQloZKEO/bqJFxMqXlZUprkSmtSnLaz5Xfqnp93vySI/b7bIhcfa7EtOdO+C7UBrrr7nUcvM6E0Kl1YaX9wlEJ2UYV81R0f6dtt1AJ2UbdVVGplZT24pq3lW1e38JrNafK2BB6Ti8x7ZvclGfO7oDfvf/8LSaEmlPjGXIEnyETOeob9/i3+AIt6WfOsCHS56ZLTPvc/bRhk/+E17VMd40JYVhgCCetkf7NjzHK3vzMl3Uc+nstedZSEGYt3tfKjD6t+KylIMxapB0WHWkxa2MBTVryDpmCsENG2mHRkTZKvtcC/lkVAAAAAAAAAAAAAAAAAAAAAAAAAAAAAAAAAAAAAAAAAAAAAAAAAAAAAAAAAAAAACCOmTTUTDh7IKppVNQ0Y31iiEGOEzEE8+LzqtSkmXkR2WmjSWviRWVEKG0Sq2fJtrTV1AxKPcdGuCzVDJnf+bC7OVbPsdFkc6KyR5OW50TxkUo7lxUx+1T1kFt62gWMiNbzZbfqYzbtSEmiPa1ez1IITatWy3Iv0aZS0yoEEUr7ZGNiL9dkNpunaMzmI9RpyeNEbEGWKS0jT9rU5NHon9r/+5dUeS4RLSHtipcNpUtfzN+Zcejm5oyS09RpyeOMk22UxLSsiZ8qxMyZop9ZsaJub1lHnfAbYRyp5hiSkydNGr5CQtJaN/z8GE+6jlg3uFroF2TyOOPkTD2JSdLmGNTJqS6DIun7YNeHrlMtzv6w0hYWpiXr96c5U7QfRki7efJJq2JyJc2CTBwHs5Yom011qYW0H7NSLugHai+EuSAnCJ/FKXUpnJ+0IJdu7N30stP44mcYum0UcZxI32tF5KuzKxa2NbJEubmh91oRdTlz9rudTxkinY56G6VKzdJqta6s/7ONKrWXbOPCSUsYZ8zSrrj9zulOuMMSpadLTvug1NBUaFrGEBkMUX4v+ZV2VXawVbRpyeNEPi0ZRVqi2E4bm99rWQrEBZmGToe042YbFWVi+UEjjMhkLuRFFJpH81KP4UUxMXzpAwAAAAAAAAAAAAAAAAAAAAAAAPxg795amwbjOI4/kU6998JgBitVCRj0DWxEBC820GJVXCCstWplVBFbRbfBJlqPVS+GqOD5sDKGR0Rloheiojg8IVSGingj+BK89GlnOv+yZOlj2iXl9xHFmj7/m6/PsiSDAgAAAAAAAAAAAAAAAAAAAAAAAAAAAAAAAAAAAAAAAAAEVHuLsHb64VyN+elcAdYyW1iL64/UwweLCah12qWFZhuFpdWk3dxhN6ejF2mJeqUtSLYK1aTtkGx1kLRtYWL3PWJ32EEbnSOKzlFlQh8gdNmBSucIU2uTttkKcFL6V3M1aZ3mkLThELGwiVgYchCmc0TRObJCRKJERHEg0znC5JqmTRiM3ZKKvVJ+fJdQWoc54mnDHqUNe5S2y6O0XfVMmz0tjaVvFtlwfvymeFo6xy7tnsyV1KsbR0N7vpbTDsjx7uS27U3xzaW01tHv+x6FQixUefO5UZqEzuEmF46GONdzZOXu4+fvTmxTlFN7ymk3qLrR2Xk5uihXSmsdvfpkr6LMVipvHr1Ak9A53OTCCwpnP6fGafMa32PnNxfVueJp6RyHtE/PJjO328+Ghr+U0/46Hhkfys1qSvSW01pHrw0e5Umsl9/1QZ7EYU7lnQ/e/ghxrufISv/FU++7jlxUHu2d2LXmYiMeM6M9sXJa6+iPO6Uk1surL67xJA5zKu9MnTmkcPZzapx2bC7/Y8PpYjLb1y2els5xSPv58N5Zo6FzVtqPw8vM1l/Z1lJa6+il3v5SEuvl6239PInDnMo7v2fLu9b1HFkZvLhp+Y61F5Q3VtqxgcVZM5ot71rraP/PO8d4EuvlwVPPaBI6h6ss/FDetfZzar1rjaSUzyaLyShLi51rbeaIn2t3Hg2FmPi5ls7x4Fx7kP+eLX6upXPqea4dU7vVPqmYlHrE09I54mkt4mkpL9Jy4mmpOqe93NMTWd8z4bJ4WjoH3yH74jtkQjgt5SrtnG/EHNHr2lX3iVWi17XX88R10evaofXEkEI0Ztq2MLHlIbFF9G7U23PEW9G7UQMJYkD0btQKmnaF45wGudEI9XqoV7C/rV+o5qHecfs5x/FQDwAAAAAAAAAAAAAAAAAAAAAAAAAAAAAAAAAAAAAAAAAaXyTCoCFFJGlG26ruMKi+LOf/fYu0ImWrbItowcDLznRbFf8BCO/KznhbGm0ocR5pvSk7821JtI2JdN7oX31r68rb421tOaQVL+uDtjRaevhj74jx6eWtkdix/SbSCpf1Q1sazZBv6reNT80d82P4gvwfZX3RlkRTouauRZ9yIyP6YB/Sipf1R1sare/6gVxqeV9m5ICKtMJlfdKWRDPj8c59a8o2Iq1oWb+0xXWt12V90xZpPS7rn7Z4POBtWR+1VWU3kNZlWT+1VWVt+l9I67Ksr9qqMqGpEzTsWoGy/mpLdq369wHs2uo0ucOEie9aK2yqNWfFxa4NeNo/W9P6l0yryf7QZOzaQKctKZdN8agV+41SW+zawKfVGJdZ080qlHJODWnrmTarVyk7bVqN2dGQto5p9UiV9OnS0rKUhrRBTquyVHuOUdYJV0XaAKfVGMvsPzbFwXSrwZiGtMFN6xxORdrgpmXOkLY+abNCabNOaTXmTEPaeqTVI7rAxQ9fZZt2+m4q0tYhre745dVxlVA31YyZKtLWIW0swnUazCW6yiltel2WTcWMXdFNT9J2ebS2mYmiayNMXKQGaePLuDhzi65ySqu2/lW+O2bhfzugxzxJu8CjtfOYKLpWYuKkIKW1Y/K+3uzaJQvELWGTWuaJa2GTEpK4RCOkxbl2So2QFt8h1yutGedM5hJdhevaf/grrZfo3ah0m8GmsMnA3ahAp1XLDwKmfvKDe8iBTqsxe3jyE+i0TuXwvDbYafFTFr/Zu3cQJ4I4AON/Q7TwLSjIhVwSm8EkGvEtOc7INTlQkk2aSNBCUEIQNtqKnGcKFQttbcTKwkYsTgsRLGxEEG2tfFTCgYVeIwjerheZPXMxjqDO+H3hHtU2Pya7yc7sOEvbs51uSK92ucHcKBdoF2yrIWo9QFXTDWY0OkEb2IZpF8vMQ3aANqdymq1osq1WC1qLaVX4N7fYb947vD0ArbW0ue/re1QUdnPLC2pBayutkhP1rqg+62tb3cnJKWjtpc21i+WmBJjBj17Lm7p4CFp7aTcr7UNQ5MW51nba4Ap5gXVRXCHbTssTaFykrRaHqSpkHS2j1mXanP46Ux8bG7u1medGOUEbrXz1SqLKqHUgtXiAhjFqHYjHbxIRERERERERERGRK41vMW48+hQI446L1qddxn2KHGe3cZHjnN9r3Hn57Y5NDNMxky1Xht+IZfty47aL1q6Vxu0Srd2rjNstWnvXGrdXfruJ+DBNQAsttNBC+0dpZ07PHYbWSdrHH25+ib/y393xL12obX0JrTu08dfL5q4VLo8+fzJ6YcWdC9C6QzsTf31/5tLl0U2XCjd4Q3aK9vHczfv3br8cvXvj8yNonaKNv517//LpphfXbz/ZAa1TtDMbN76/UwkrQesULZ9roYXWAtptyWHaBq19tIXMMBWghRbaf5V2pOanzqX82gi0TtHm0zHpFUvnoXWFNukrCTpZ7EqQ8pPQOkFbSsi3zhSb8q1ECVoHaLMqGK/NRZtYZKG1njYbjtdqS76XUMHvLLSW05aU9E+VoLWaNpmQpUokobWZ1peT5e4Su0b50FpMm1dyZvqKaGk7H6g8tPbSpmVQaWjtpY3JoGLQWks7IoMbgdZW2poMrgatrbT+T/Yw96G1lTYl0q6flX41vVvjzRS0ttKeE1H6Zsgtr9f8fxfHvXPQ2kqbkiVrzvsyau2l5VzrLC1XyM7S8rnWWdpMTKQ91pA+nWjwbZTVtOnwRkD/Oz98h2w1bV7JknHnx2raQdfI3K+1m5ZZFs7SZkqqd2rt1S43mBvlAm0mK0HVELUeoKrpBjManaDNZJU+ayaMecgO0Fa2VnqrB/QSpUznYQdai2lTIpIK1/xohWt+nnme9wxaa2krElTps1Kv4wV1oLWVdqucqHel1md97cPu5OSU9xBaW2kr7WK5KZXMj3W8qYuHGLX20i6ca/vEudZ22kylVsn0jStk22l5TImLtEeKw3QEWvtoGbX/De3HiWw2ew1aF2lX3HuTPAqtg7S8ITtDe7AwTAfZeM2+jdeIiIiIiIiIiIiIiCI92GfcA9E6tdO4U5Hj7DcucpzZPcbNRo5zwLhZ+bvtW2fcPtHauca4naK1f71x+0Vrz2rj9ojWgQ3GHZBfDFpooYUWWmihhRZaaKHVgxZaaKGFFlpooYUWWmj1oIUWWmihhRZaaKGFFlo9aKGFFlpooYUWWmihhVYPWmihhfZre3dMBAAAAyHMv+uuWOhfsBABoEWLFi1atGgbWrRo0aJFixYtWrRoG1q0aNGiRYsWLVq0aBtatGjRokWLFi1atGgbWrRo0aJFixYtWrRoG1q0aNGi3aQ1Xpsdr0mSJEmSJEmSJEmSJEmSJEmSJOlBB76tmbaMFq8lAAAAAElFTkSuQmCC;" vertex="1" parent="1">
                    <mxGeometry x="170" y="10" width="474" height="1344" as="geometry"/>
                </mxCell>
            </root>
        </mxGraphModel>
    </diagram>
</mxfile>